<svg width="390" height="844" viewBox="0 0 390 844" fill="none" xmlns="http://www.w3.org/2000/svg">
<rect width="390" height="844" fill="url(#paint0_linear_6863_370505)"/>
<g filter="url(#filter0_d_6863_370505)">
<path d="M147.998 380.271V420H142.811V401.988H122.576V420H117.389V380.271H122.576V397.713H142.811V380.271H147.998ZM162.042 384.489V397.77H176.52V402.045H162.042V415.725H178.23V420H156.855V380.214H178.23V384.489H162.042ZM191.265 415.782H205.173V420H186.078V380.271H191.265V415.782ZM215.869 415.782H229.777V420H210.682V380.271H215.869V415.782ZM253.297 420.399C249.611 420.399 246.248 419.544 243.208 417.834C240.168 416.086 237.755 413.673 235.969 410.595C234.221 407.479 233.347 403.983 233.347 400.107C233.347 396.231 234.221 392.754 235.969 389.676C237.755 386.56 240.168 384.147 243.208 382.437C246.248 380.689 249.611 379.815 253.297 379.815C257.021 379.815 260.403 380.689 263.443 382.437C266.483 384.147 268.877 386.541 270.625 389.619C272.373 392.697 273.247 396.193 273.247 400.107C273.247 404.021 272.373 407.517 270.625 410.595C268.877 413.673 266.483 416.086 263.443 417.834C260.403 419.544 257.021 420.399 253.297 420.399ZM253.297 415.896C256.071 415.896 258.56 415.25 260.764 413.958C263.006 412.666 264.754 410.823 266.008 408.429C267.3 406.035 267.946 403.261 267.946 400.107C267.946 396.915 267.3 394.141 266.008 391.785C264.754 389.391 263.025 387.548 260.821 386.256C258.617 384.964 256.109 384.318 253.297 384.318C250.485 384.318 247.977 384.964 245.773 386.256C243.569 387.548 241.821 389.391 240.529 391.785C239.275 394.141 238.648 396.915 238.648 400.107C238.648 403.261 239.275 406.035 240.529 408.429C241.821 410.823 243.569 412.666 245.773 413.958C248.015 415.25 250.523 415.896 253.297 415.896Z" fill="white"/>
</g>
<defs>
<filter id="filter0_d_6863_370505" x="107.389" y="373.815" width="175.859" height="60.584" filterUnits="userSpaceOnUse" color-interpolation-filters="sRGB">
<feFlood flood-opacity="0" result="BackgroundImageFix"/>
<feColorMatrix in="SourceAlpha" type="matrix" values="0 0 0 0 0 0 0 0 0 0 0 0 0 0 0 0 0 0 127 0" result="hardAlpha"/>
<feOffset dy="4"/>
<feGaussianBlur stdDeviation="5"/>
<feComposite in2="hardAlpha" operator="out"/>
<feColorMatrix type="matrix" values="0 0 0 0 0.113725 0 0 0 0 0.839216 0 0 0 0 1 0 0 0 1 0"/>
<feBlend mode="normal" in2="BackgroundImageFix" result="effect1_dropShadow_6863_370505"/>
<feBlend mode="normal" in="SourceGraphic" in2="effect1_dropShadow_6863_370505" result="shape"/>
</filter>
<linearGradient id="paint0_linear_6863_370505" x1="195" y1="0" x2="195" y2="844" gradientUnits="userSpaceOnUse">
<stop offset="0.140625" stop-color="#0FEFFF"/>
<stop offset="0.703125" stop-color="#1893FE"/>
<stop offset="1" stop-color="#21356B"/>
</linearGradient>
</defs>
</svg>
