<svg width="141" height="142" viewBox="0 0 141 142" fill="none" xmlns="http://www.w3.org/2000/svg">
<path d="M54.1358 141.933C58.276 141.933 61.542 140.205 63.8111 136.744L138.651 20.0752C140.327 17.4509 140.999 15.255 140.999 13.0942C140.999 7.61162 137.144 3.82812 131.604 3.82812C127.675 3.82812 125.392 5.1498 123.008 8.89192L53.8173 118.815L18.1619 72.9699C15.8418 69.8969 13.4071 68.61 9.96756 68.61C4.28275 68.61 0.289062 72.5894 0.289062 78.0859C0.289062 80.4476 1.17124 82.833 3.15694 85.2457L44.4079 136.857C47.1548 140.292 50.1246 141.933 54.1358 141.933Z" fill="#00DCDE"/>
</svg>
