<svg width="40" height="41" viewBox="0 0 40 41" fill="none" xmlns="http://www.w3.org/2000/svg">
<path d="M20 37.2315C29.2406 37.2315 36.7315 29.7406 36.7315 20.5C36.7315 11.2595 29.2406 3.76855 20 3.76855C10.7595 3.76855 3.26855 11.2595 3.26855 20.5C3.26855 29.7406 10.7595 37.2315 20 37.2315Z" fill="#00DCDE"/>
<path d="M14.977 24.6424C14.977 24.6424 13.6659 25.6649 12.5789 27.8053C11.4918 29.9457 10.5748 31.4061 10.5407 32.0175C10.5066 32.629 10.4729 34.5312 12.5111 34.6672C14.5492 34.8031 15.707 30.0131 16.0963 28.9942C16.4851 27.9753 18.2585 23.9935 14.977 24.6424Z" fill="#231F20"/>
<path d="M25.4593 17.8429C25.4593 20.6447 23.3774 22.9162 20.8096 22.9162C18.2419 22.9162 17.0752 20.6447 17.0752 17.8429C17.0752 15.041 18.2419 12.7695 20.8096 12.7695C23.3774 12.7695 25.4593 15.041 25.4593 17.8429Z" fill="#231F20"/>
<path d="M28.4868 32.3589C28.9464 37.8037 24.9983 37.9904 20.6953 37.9904C16.3923 37.9904 12.9038 37.8241 12.9038 32.3589C12.9038 28.5719 13.7068 26.0715 14.5742 25.0004C15.3727 24.0145 18.3383 23.3874 20.2794 23.4563C22.2768 23.5271 26.0542 23.8893 26.7186 25.0004C27.786 26.7856 28.2671 29.7582 28.4868 32.3589Z" fill="#231F20"/>
<path d="M24.182 17.1139C24.3042 18.6609 23.8112 22.735 20.7135 23.0316C18.2675 23.2661 17.1353 20.9435 16.8716 18.3457C16.4068 13.7661 17.6838 13.3672 20.0027 13.3672C22.3216 13.3672 23.9894 14.6779 24.182 17.1139Z" fill="white"/>
<path d="M16.2589 13.2785C16.5919 13.7244 17.0912 14.1393 17.6871 14.2159C18.2826 14.2926 20.6393 14.063 21.5545 14.0304C22.4697 13.9978 23.3638 16.7107 23.7445 17.6915C24.1256 18.6722 25.2808 19.1833 25.2808 19.1833C25.2808 19.1833 25.7378 17.5292 25.7386 16.9726C25.7401 15.4363 25.4919 13.9826 24.4638 13.1418C22.2738 11.3504 19.4297 12.037 18.2204 12.5926C17.0112 13.1481 15.6145 12.4155 16.2589 13.2785Z" fill="#231F20"/>
<path d="M18.3303 23.5379C18.3303 23.5379 20.19 23.342 21.6488 23.5001C23.1077 23.6583 23.1077 23.6583 23.1077 23.6583C23.1077 23.6583 20.8211 26.3735 18.3303 23.5379Z" fill="white"/>
<path d="M13.3775 27.593C13.2072 26.9734 12.9864 25.58 12.4087 24.3923C12.1479 24.2674 12.0979 24.286 11.8398 24.2734C11.0709 24.2363 10.0564 24.3719 9.6831 24.8271C9.68199 24.8282 9.68088 24.8293 9.67977 24.8304C9.67977 24.8304 9.44829 26.3471 9.83829 28.7156C10.2283 31.0841 10.3531 32.8045 10.6875 33.3174C11.022 33.8304 12.1201 35.3841 13.8438 34.2878C15.5675 33.1911 13.6668 28.6449 13.3775 27.593Z" fill="#231F20"/>
<path d="M9.92599 24.7029C9.92599 24.7029 9.54636 24.0778 9.43043 23.7718C9.31451 23.4663 8.72858 22.1666 8.65228 21.8355C8.57599 21.5044 8.95784 21.5044 9.13636 21.8355C9.31488 22.1666 9.59488 22.6507 9.59488 22.6507C9.59488 22.6507 9.67969 22.7752 9.75895 22.6733C9.83821 22.5715 9.28488 20.9044 9.28414 20.5944C9.2834 20.2844 9.3171 20.2389 9.43043 20.1822C9.54377 20.1255 9.61191 20.2615 9.6571 20.3522C9.70228 20.4429 10.1552 22.0622 10.2008 22.1752C10.246 22.2885 10.3252 22.4355 10.4271 22.3904C10.529 22.3452 9.90636 19.8766 9.90636 19.82C9.90636 19.7633 10.0927 19.367 10.3504 19.82C10.6082 20.2729 10.8119 21.7222 10.9027 21.8807C10.9934 22.0392 11.0271 22.2204 11.163 22.0959C11.299 21.9715 11.0612 20.3066 11.1178 20.0352C11.1745 19.7633 11.3897 19.6504 11.5141 20.0011C11.6386 20.3522 11.7519 22.2203 11.7634 22.4696C11.7749 22.7189 11.7497 22.8659 11.9038 22.8659C12.0578 22.8659 12.3297 22.1074 12.4541 21.8696C12.5786 21.6318 12.9638 21.53 12.8956 21.8811C12.8278 22.2322 12.3293 23.6815 12.2727 23.84C12.216 23.9985 12.123 24.3744 12.0689 24.5422C11.9419 24.9355 10.773 25.6911 9.92599 24.7029Z" fill="white"/>
<path d="M37.8298 19.3737H33.9347V15.4781C33.9347 15.1562 33.6739 14.8955 33.3521 14.8955H31.8469C31.525 14.8955 31.2643 15.1562 31.2643 15.4781V19.3737H27.3687C27.0469 19.3737 26.7861 19.6344 26.7861 19.9562V21.4614C26.7861 21.7833 27.0469 22.044 27.3687 22.044H31.2643V25.9396C31.2643 26.2614 31.525 26.5222 31.8469 26.5222H33.3521C33.6739 26.5222 33.9347 26.2614 33.9347 25.9396V22.044H37.8302C38.1521 22.044 38.4128 21.7833 38.4128 21.4614V19.9562C38.4128 19.6344 38.1517 19.3737 37.8298 19.3737Z" fill="#231F20"/>
<path d="M37.3425 18.9553H33.447V15.0601C33.447 14.7383 33.1862 14.4775 32.8644 14.4775H31.3592C31.0373 14.4775 30.7766 14.7383 30.7766 15.0601V18.9553H26.8814C26.5596 18.9553 26.2988 19.2161 26.2988 19.5379V21.0431C26.2988 21.3649 26.5596 21.6257 26.8814 21.6257H30.777V25.5212C30.777 25.8431 31.0377 26.1038 31.3596 26.1038H32.8648C33.1866 26.1038 33.4473 25.8431 33.4473 25.5212V21.6257H37.3429C37.6648 21.6257 37.9255 21.3649 37.9255 21.0431V19.5379C37.9251 19.2164 37.6644 18.9553 37.3425 18.9553Z" fill="white"/>
</svg>
